<?xml version="1.0" encoding="UTF-8" standalone="no"?>
<!-- Created with Inkscape (http://www.inkscape.org/) -->

<svg
   xmlns:dc="http://purl.org/dc/elements/1.1/"
   xmlns:cc="http://creativecommons.org/ns#"
   xmlns:rdf="http://www.w3.org/1999/02/22-rdf-syntax-ns#"
   xmlns:svg="http://www.w3.org/2000/svg"
   xmlns="http://www.w3.org/2000/svg"
   xmlns:xlink="http://www.w3.org/1999/xlink"
   xmlns:sodipodi="http://sodipodi.sourceforge.net/DTD/sodipodi-0.dtd"
   xmlns:inkscape="http://www.inkscape.org/namespaces/inkscape"
   width="124.88725mm"
   height="20.209713mm"
   viewBox="0 0 124.88725 20.209713"
   version="1.1"
   id="svg8"
   inkscape:version="0.92.5 (2060ec1f9f, 2020-04-08)"
   sodipodi:docname="banner.svg">
  <defs
     id="defs2">
    <linearGradient
       id="linearGradient890"
       inkscape:collect="always">
      <stop
         id="stop886"
         offset="0"
         style="stop-color:#0c0c0c;stop-opacity:1" />
      <stop
         id="stop888"
         offset="1"
         style="stop-color:#797979;stop-opacity:1" />
    </linearGradient>
    <linearGradient
       inkscape:collect="always"
       id="linearGradient875">
      <stop
         style="stop-color:#303030;stop-opacity:1"
         offset="0"
         id="stop871" />
      <stop
         style="stop-color:#c5c5c5;stop-opacity:1"
         offset="1"
         id="stop873" />
    </linearGradient>
    <linearGradient
       inkscape:collect="always"
       xlink:href="#linearGradient875"
       id="linearGradient877"
       x1="76.315262"
       y1="63.375977"
       x2="170.79039"
       y2="63.375977"
       gradientUnits="userSpaceOnUse" />
    <linearGradient
       inkscape:collect="always"
       xlink:href="#linearGradient890"
       id="linearGradient884"
       gradientUnits="userSpaceOnUse"
       x1="123.69456"
       y1="60.465561"
       x2="123.69456"
       y2="66.947853" />
  </defs>
  <sodipodi:namedview
     id="base"
     pagecolor="#ffffff"
     bordercolor="#666666"
     borderopacity="1.0"
     inkscape:pageopacity="0.0"
     inkscape:pageshadow="2"
     inkscape:zoom="2"
     inkscape:cx="196.2539"
     inkscape:cy="77.861098"
     inkscape:document-units="mm"
     inkscape:current-layer="text869"
     showgrid="false"
     showguides="true"
     inkscape:guide-bbox="true"
     inkscape:window-width="1920"
     inkscape:window-height="1046"
     inkscape:window-x="1920"
     inkscape:window-y="0"
     inkscape:window-maximized="1" />
  <metadata
     id="metadata5">
    <rdf:RDF>
      <cc:Work
         rdf:about="">
        <dc:format>image/svg+xml</dc:format>
        <dc:type
           rdf:resource="http://purl.org/dc/dcmitype/StillImage" />
        <dc:title />
      </cc:Work>
    </rdf:RDF>
  </metadata>
  <g
     inkscape:label="Layer 1"
     inkscape:groupmode="layer"
     id="layer1"
     transform="translate(-47.985375,-52.923811)">
    <g
       id="g865"
       transform="matrix(0.04859985,0,0,0.04859985,47.985375,50.591018)">
      <path
         id="path2"
         d="m 224.98,48 v 415.839 h 78.818 V 295.337 H 511.413 V 216.501 H 303.798 V 48 Z"
         inkscape:connector-curvature="0"
         style="fill:#aa0000" />
      <path
         id="path4"
         d="M 177.329,129.606 Q 161.283,87.053 138.708,67.661 116.405,48.001 84.313,48.001 H 18.494 v 60.059 h 32.365 q 24.478,0 35.9,8.349 11.424,8.08 23.119,37.975 l 5.984,16.159 L 0,463.836 h 83.767 l 69.627,-195.797 66.636,195.797 h 83.77 z"
         inkscape:connector-curvature="0"
         style="fill:#181f6f" />
      <g
         transform="matrix(0.93924088,0,0,0.93924088,56.705872,49.123372)"
         id="g69">
        <path
           d="m 445.54113,439.54115 c 0,0.98472 -0.79754,1.76498 -1.7774,1.76498 -0.98472,0 -1.78243,-0.77991 -1.78243,-1.76498 0,-0.97969 0.79754,-1.7774 1.78243,-1.7774 0.97969,0 1.7774,0.79754 1.7774,1.7774 z"
           style="fill:#ffffff;fill-opacity:1;fill-rule:nonzero;stroke:none;stroke-width:4.3374815"
           id="path83"
           inkscape:connector-curvature="0" />
        <path
           d="m 443.74549,437.51118 c 0.55871,0 1.03203,0.17449 1.42349,0.5737 0.38863,0.39128 0.59308,0.86715 0.59308,1.42596 0,0.57369 -0.17449,1.04948 -0.5781,1.42349 -0.40891,0.38599 -0.88038,0.59044 -1.44085,0.59044 -0.54109,0 -1.01962,-0.17449 -1.42341,-0.59044 -0.39127,-0.39128 -0.59308,-0.86804 -0.59308,-1.42349 0,-0.54109 0.19916,-1.01961 0.59308,-1.42596 0.38599,-0.38599 0.86275,-0.5737 1.42341,-0.5737 z m 0,0.35691 c -0.45914,0 -0.83279,0.17449 -1.15418,0.47323 -0.33929,0.33929 -0.49086,0.72792 -0.49086,1.17163 0,0.45649 0.14981,0.8275 0.49086,1.16669 0.32165,0.32166 0.71029,0.49086 1.15418,0.49086 0.45649,0 0.84512,-0.17449 1.16669,-0.50848 0.32166,-0.28641 0.47588,-0.67592 0.47588,-1.14924 0,-0.45914 -0.14982,-0.85041 -0.47588,-1.17163 -0.32166,-0.30403 -0.71029,-0.47324 -1.16669,-0.47324 z m 0.54109,1.14924 v 0.81516 h -0.22472 v 0.9797 h -0.62834 v -0.9797 h -0.22472 v -0.81516 c 0,-0.0264 0.0176,-0.0705 0.0264,-0.0705 0.0264,-0.0264 0.0705,-0.0529 0.0996,-0.0529 h 0.8275 c 0.0264,0 0.0529,0.0176 0.0705,0.0529 0.0176,0.0176 0.0264,0.0529 0.0264,0.0705 z m -0.81516,-0.5261 c 0,-0.17449 0.0705,-0.26967 0.27142,-0.26967 0.17449,0 0.28641,0.0705 0.28641,0.26967 0,0.17448 -0.0996,0.29169 -0.28641,0.29169 -0.17449,0 -0.27142,-0.0996 -0.27142,-0.29169 z"
           style="fill:#000000;fill-opacity:1;fill-rule:nonzero;stroke:none;stroke-width:4.3374815"
           id="path85"
           inkscape:connector-curvature="0" />
        <path
           d="m 445.57576,435.64627 c 0,0.99714 -0.81516,1.8123 -1.8123,1.8123 -1.00216,0 -1.8123,-0.81516 -1.8123,-1.8123 0,-1.00216 0.80988,-1.8123 1.8123,-1.8123 0.99714,0 1.8123,0.80988 1.8123,1.8123 z"
           style="fill:#ffffff;fill-opacity:1;fill-rule:nonzero;stroke:none;stroke-width:4.3374815"
           id="path87"
           inkscape:connector-curvature="0" />
        <path
           d="m 443.74549,433.62926 c 0.55871,0 1.03203,0.19916 1.44093,0.59308 0.17449,0.17449 0.32166,0.40626 0.42124,0.64067 0.0996,0.25645 0.14982,0.50849 0.14982,0.77991 0,0.26967 -0.0529,0.52611 -0.14982,0.77991 -0.0705,0.22472 -0.22472,0.43887 -0.42124,0.62569 -0.19916,0.19917 -0.42388,0.35691 -0.66358,0.45914 -0.25204,0.0996 -0.50848,0.14981 -0.77815,0.14981 -0.27142,0 -0.52611,-0.0529 -0.76316,-0.14981 -0.2494,-0.0996 -0.45914,-0.25645 -0.6583,-0.44151 -0.17449,-0.19916 -0.34369,-0.42388 -0.44415,-0.6583 -0.0996,-0.24939 -0.14982,-0.4935 -0.14982,-0.76316 0,-0.27407 0.0529,-0.52611 0.14982,-0.76317 0.0996,-0.25204 0.25644,-0.47411 0.45649,-0.6583 0.37365,-0.39127 0.85041,-0.59308 1.41097,-0.59308 z m 0,0.37365 c -0.45914,0 -0.85042,0.14981 -1.15418,0.47411 -0.14982,0.14982 -0.28641,0.33929 -0.37366,0.54109 -0.0705,0.19917 -0.12513,0.40626 -0.12513,0.62834 0,0.22472 0.0264,0.42388 0.12513,0.62305 0.0705,0.19916 0.22472,0.37365 0.37366,0.52875 0.14981,0.17449 0.33928,0.28641 0.52611,0.36924 0.19916,0.0705 0.4089,0.12426 0.62833,0.12426 0.22472,0 0.42124,-0.0529 0.62569,-0.12426 0.19916,-0.0705 0.38863,-0.19916 0.55872,-0.3569 0.30138,-0.30932 0.45825,-0.69796 0.45825,-1.15427 0,-0.22472 -0.0264,-0.44151 -0.12426,-0.62834 -0.0705,-0.19916 -0.19916,-0.38687 -0.35691,-0.54109 -0.32165,-0.32165 -0.71029,-0.47323 -1.1666,-0.47323 z m -0.0176,1.30628 -0.27143,0.12514 c -0.0264,-0.0529 -0.0705,-0.0996 -0.0996,-0.12514 -0.0529,-0.0176 -0.0705,-0.0264 -0.12425,-0.0264 -0.17449,0 -0.27143,0.12513 -0.27143,0.3569 0,0.0996 0.0176,0.17449 0.0705,0.25204 0.0529,0.0705 0.12426,0.0996 0.19916,0.0996 0.12426,0 0.19917,-0.0529 0.22472,-0.17448 l 0.25645,0.12425 c -0.0529,0.0996 -0.12514,0.17449 -0.22472,0.2494 -0.0705,0.0529 -0.17449,0.0705 -0.30139,0.0705 -0.17449,0 -0.32695,-0.0529 -0.44151,-0.17449 -0.0996,-0.0996 -0.17449,-0.25204 -0.17449,-0.45649 0,-0.17449 0.0705,-0.33928 0.17449,-0.45913 0.12426,-0.12426 0.25645,-0.17449 0.42388,-0.17449 0.25204,0 0.43887,0.0996 0.54109,0.29169 z m 1.14924,0 -0.25203,0.12514 c -0.0264,-0.0529 -0.0705,-0.0996 -0.12514,-0.12514 -0.0264,-0.0176 -0.0705,-0.0264 -0.12426,-0.0264 -0.17449,0 -0.26966,0.12513 -0.26966,0.3569 0,0.0996 0.0264,0.17449 0.0705,0.25204 0.0529,0.0705 0.12425,0.0996 0.19916,0.0996 0.12426,0 0.19916,-0.0529 0.25645,-0.17448 l 0.25203,0.12425 c -0.0529,0.0996 -0.12425,0.17449 -0.22472,0.2494 -0.0996,0.0529 -0.19916,0.0705 -0.30932,0.0705 -0.17448,0 -0.33928,-0.0529 -0.43886,-0.17449 -0.12426,-0.0996 -0.17449,-0.25204 -0.17449,-0.45649 0,-0.17449 0.0529,-0.33928 0.17449,-0.45913 0.12426,-0.12426 0.25204,-0.17449 0.42124,-0.17449 0.25644,0 0.42388,0.0996 0.52611,0.29169 z"
           style="fill:#000000;fill-opacity:1;fill-rule:nonzero;stroke:none;stroke-width:4.3374815"
           id="path89"
           inkscape:connector-curvature="0" />
        <text
           transform="scale(0.99994081,1.0000592)"
           style="font-variant:normal;font-weight:normal;font-size:5.05850077px;font-family:Helvetica;-inkscape-font-specification:Helvetica;writing-mode:lr-tb;fill:#000000;fill-opacity:1;fill-rule:nonzero;stroke:none;stroke-width:4.33722448"
           id="text95"
           x="446.35913"
           y="437.32626">
          <tspan
             x="446.35913 449.72784 452.54037 455.35294 458.16547 459.8649 462.67743 464.07886 467.7305 470.26013 471.38293 474.1955 476.72513 480.92834"
             y="437.32626"
             sodipodi:role="line"
             id="tspan91"
             style="stroke-width:4.33722448">Sandra Dylus &amp;</tspan>
          <tspan
             x="446.35913 448.88794 451.7005 454.51303 455.91422 459.56665 462.37946 464.06354 465.20169 467.7305 469.13193 470.25476 473.06729 475.87985 478.40948 481.22202"
             y="441.40094"
             sodipodi:role="line"
             id="tspan93"
             style="stroke-width:4.33722448">Jan Christiansen</tspan>
        </text>
      </g>
    </g>
    <g
       aria-label="Curry Language Server"
       style="font-style:normal;font-weight:normal;font-size:10.58333302px;line-height:1.25;font-family:sans-serif;letter-spacing:0px;word-spacing:0px;fill:#252525;fill-opacity:1;stroke:none;stroke-width:0.26458332"
       id="text869">
      <path
         d="m 81.149151,65.670706 q -1.386417,0 -2.074334,-0.79375 -0.677333,-0.804333 -0.677333,-2.211917 0,-1.598083 0.783167,-2.402416 0.79375,-0.804333 2.116666,-0.804333 0.370417,0 0.8255,0.07408 0.465667,0.0635 0.85725,0.211667 0.01058,0.328083 -0.01058,0.719666 -0.02117,0.381 -0.07408,0.762 h -0.497417 l -0.179917,-0.867833 q -0.02117,-0.08467 -0.07408,-0.148167 -0.04233,-0.07408 -0.127,-0.116416 -0.127,-0.07408 -0.381,-0.137584 -0.254,-0.0635 -0.529167,-0.0635 -0.79375,0 -1.27,0.624417 -0.465666,0.624417 -0.465666,2.00025 0,0.60325 0.09525,1.11125 0.09525,0.497416 0.306916,0.85725 0.211667,0.34925 0.53975,0.550333 0.338667,0.201083 0.804334,0.201083 0.254,0 0.497416,-0.0635 0.254,-0.0635 0.423334,-0.169333 0.07408,-0.05292 0.116416,-0.116417 0.04233,-0.0635 0.07408,-0.15875 l 0.264583,-0.79375 0.497417,0.05292 q 0.01058,0.306917 -0.02117,0.677333 -0.02117,0.359834 -0.07408,0.6985 -0.338667,0.137584 -0.814917,0.22225 -0.465667,0.08467 -0.931333,0.08467 z"
         style="font-style:normal;font-variant:normal;font-weight:normal;font-stretch:normal;font-family:Yrsa;-inkscape-font-specification:Yrsa;fill:#797979;fill-opacity:1;stroke-width:0.26458332;stroke:none;stroke-opacity:1"
         id="path833" />
      <path
         d="m 87.806054,65.628373 q -0.296333,0 -0.465666,-0.15875 -0.169334,-0.15875 -0.232834,-0.402167 -0.264583,0.254 -0.592666,0.423333 -0.328084,0.15875 -0.783167,0.15875 -0.719666,0 -1.04775,-0.391583 -0.328083,-0.402167 -0.328083,-1.2065 v -2.06375 q 0,-0.105833 -0.05292,-0.169333 -0.04233,-0.0635 -0.148166,-0.07408 l -0.47625,-0.08467 v -0.381 q 0.328083,-0.08467 0.687916,-0.127 0.370417,-0.05292 0.6985,-0.0635 l 0.116417,0.127 v 2.688166 q 0,0.613834 0.179916,0.910167 0.179917,0.28575 0.66675,0.28575 0.275167,0 0.53975,-0.08467 0.264584,-0.09525 0.497417,-0.28575 v -2.741083 q 0,-0.105833 -0.05292,-0.169333 -0.05292,-0.07408 -0.148166,-0.08467 l -0.5715,-0.08467 v -0.381 q 0.328083,-0.08467 0.740833,-0.127 0.41275,-0.05292 0.740833,-0.05292 l 0.116417,0.127 v 3.6195 q 0,0.137583 0.05292,0.1905 0.0635,0.05292 0.169333,0.0635 l 0.4445,0.04233 v 0.359833 q -0.137583,0.04233 -0.34925,0.08467 -0.211667,0.05292 -0.402167,0.05292 z"
         style="font-style:normal;font-variant:normal;font-weight:normal;font-stretch:normal;font-family:Yrsa;-inkscape-font-specification:Yrsa;fill:#797979;fill-opacity:1;stroke-width:0.26458332;stroke:none;stroke-opacity:1"
         id="path835" />
      <path
         d="m 91.70072,65.183873 v 0.381 h -2.497666 v -0.391584 l 0.465667,-0.07408 q 0.105833,-0.01058 0.15875,-0.07408 0.05292,-0.0635 0.05292,-0.169334 v -2.846916 q 0,-0.105833 -0.05292,-0.169333 -0.04233,-0.07408 -0.15875,-0.08467 l -0.529167,-0.07408 v -0.381 q 0.306917,-0.09525 0.656167,-0.148167 0.359833,-0.05292 0.66675,-0.0635 l 0.127,0.127 0.08467,0.709083 q 0.243417,-0.328083 0.635,-0.592666 0.402167,-0.264584 0.8255,-0.264584 0.105833,0 0.264583,0.03175 0.15875,0.03175 0.264584,0.07408 0.02117,0.328083 -0.01058,0.740833 -0.02117,0.402167 -0.09525,0.73025 H 92.166387 L 92.04997,62.051206 q -0.03175,-0.127 -0.09525,-0.179916 -0.05292,-0.05292 -0.169333,-0.05292 -0.264583,0 -0.550333,0.116417 -0.28575,0.116416 -0.529167,0.359833 v 2.561166 q 0,0.105834 0.05292,0.169334 0.0635,0.0635 0.169333,0.07408 z"
         style="font-style:normal;font-variant:normal;font-weight:normal;font-stretch:normal;font-family:Yrsa;-inkscape-font-specification:Yrsa;fill:#797979;fill-opacity:1;stroke-width:0.26458332;stroke:none;stroke-opacity:1"
         id="path837" />
      <path
         d="m 95.828213,65.183873 v 0.381 h -2.497666 v -0.391584 l 0.465666,-0.07408 q 0.105834,-0.01058 0.15875,-0.07408 0.05292,-0.0635 0.05292,-0.169334 v -2.846916 q 0,-0.105833 -0.05292,-0.169333 -0.04233,-0.07408 -0.15875,-0.08467 l -0.529166,-0.07408 v -0.381 q 0.306916,-0.09525 0.656166,-0.148167 0.359834,-0.05292 0.66675,-0.0635 l 0.127,0.127 0.08467,0.709083 q 0.243417,-0.328083 0.635,-0.592666 0.402167,-0.264584 0.8255,-0.264584 0.105833,0 0.264583,0.03175 0.15875,0.03175 0.264584,0.07408 0.02117,0.328083 -0.01058,0.740833 -0.02117,0.402167 -0.09525,0.73025 H 96.29388 l -0.116417,-0.592667 q -0.03175,-0.127 -0.09525,-0.179916 -0.05292,-0.05292 -0.169333,-0.05292 -0.264583,0 -0.550333,0.116417 -0.28575,0.116416 -0.529167,0.359833 v 2.561166 q 0,0.105834 0.05292,0.169334 0.0635,0.0635 0.169333,0.07408 z"
         style="font-style:normal;font-variant:normal;font-weight:normal;font-stretch:normal;font-family:Yrsa;-inkscape-font-specification:Yrsa;fill:#797979;fill-opacity:1;stroke-width:0.26458332;stroke:none;stroke-opacity:1"
         id="path839" />
      <path
         d="m 98.156542,67.554539 q -0.211667,0 -0.4445,-0.02117 -0.232834,-0.01058 -0.455084,-0.05292 v -0.486833 q 0.455084,-0.04233 0.804334,-0.116417 0.34925,-0.0635 0.613833,-0.22225 0.264583,-0.148167 0.465667,-0.41275 0.211666,-0.264583 0.381,-0.677333 h -0.391584 l -1.397,-3.704167 q -0.03175,-0.07408 -0.09525,-0.127 -0.05292,-0.05292 -0.137583,-0.07408 l -0.3175,-0.09525 v -0.370417 h 2.084917 v 0.370417 l -0.656167,0.127 1.153583,3.196166 1.005412,-3.206749 -0.62441,-0.116417 v -0.370417 h 1.67216 v 0.370417 l -0.3175,0.09525 q -0.0847,0.02117 -0.14816,0.07408 -0.0529,0.04233 -0.0847,0.137584 l -1.312332,3.862916 q -0.3175,0.931333 -0.73025,1.375833 -0.402166,0.4445 -1.068916,0.4445 z"
         style="font-style:normal;font-variant:normal;font-weight:normal;font-stretch:normal;font-family:Yrsa;-inkscape-font-specification:Yrsa;fill:#797979;fill-opacity:1;stroke-width:0.26458332;stroke:none;stroke-opacity:1"
         id="path841" />
      <path
         d="m 108.23186,64.771123 0.33866,-1.037167 0.43392,0.05292 q -0.0106,0.41275 -0.0423,0.889 -0.0318,0.465666 -0.127,0.889 h -4.43442 v -0.391584 l 0.61383,-0.105833 q 0.10584,-0.01058 0.14817,-0.07408 0.0529,-0.0635 0.0529,-0.169334 V 60.31554 q 0,-0.105834 -0.0529,-0.169334 -0.0423,-0.0635 -0.14817,-0.07408 l -0.61383,-0.116417 V 59.55354 h 2.67758 v 0.402166 l -0.80433,0.127 q -0.10583,0.01058 -0.15875,0.07408 -0.0423,0.05292 -0.0423,0.15875 v 4.783666 h 1.09008 q 0.27517,0 0.48683,-0.02117 0.22225,-0.03175 0.35984,-0.07408 0.0847,-0.03175 0.13758,-0.08467 0.0529,-0.0635 0.0847,-0.148166 z"
         style="font-style:normal;font-variant:normal;font-weight:normal;font-stretch:normal;font-family:Yrsa;-inkscape-font-specification:Yrsa;fill:#797979;fill-opacity:1;stroke-width:0.26458332;stroke:none;stroke-opacity:1"
         id="path843" />
      <path
         d="m 111.14227,65.109789 q 0.27517,0 0.56092,-0.09525 0.28575,-0.105833 0.48683,-0.275166 v -1.037167 l -0.74083,0.07408 q -0.46567,0.03175 -0.71967,0.211667 -0.24341,0.169333 -0.24341,0.529167 0,0.275166 0.15875,0.433916 0.16933,0.15875 0.49741,0.15875 z m 1.778,0.518584 q -0.27516,0 -0.45508,-0.137584 -0.17992,-0.148166 -0.24342,-0.41275 -0.24341,0.264584 -0.61383,0.423334 -0.35983,0.148166 -0.762,0.148166 -0.52917,0 -0.889,-0.264583 -0.34925,-0.275167 -0.34925,-0.79375 0,-0.338667 0.14817,-0.560917 0.15875,-0.22225 0.40216,-0.359833 0.24342,-0.137583 0.55034,-0.201083 0.30691,-0.07408 0.60325,-0.09525 l 0.87841,-0.07408 v -0.518583 q 0,-0.60325 -0.24341,-0.836083 -0.23284,-0.243417 -0.71967,-0.243417 -0.35983,0 -0.68792,0.116417 -0.32808,0.116417 -0.60325,0.381 l -0.20108,-0.1905 q 0.15875,-0.455083 0.635,-0.687917 0.48683,-0.232833 1.09008,-0.232833 0.762,0 1.143,0.391583 0.39159,0.391584 0.39159,1.185333 v 2.169584 q 0,0.127 0.0529,0.1905 0.0635,0.05292 0.17992,0.0635 l 0.43392,0.04233 v 0.359833 q -0.10584,0.03175 -0.33867,0.08467 -0.22225,0.05292 -0.40217,0.05292 z"
         style="font-style:normal;font-variant:normal;font-weight:normal;font-stretch:normal;font-family:Yrsa;-inkscape-font-specification:Yrsa;fill:#797979;fill-opacity:1;stroke-width:0.26458332;stroke:none;stroke-opacity:1"
         id="path845" />
      <path
         d="m 116.40218,65.173289 v 0.391584 h -2.13783 v -0.391584 l 0.46566,-0.07408 q 0.10584,-0.01058 0.15875,-0.07408 0.0529,-0.0635 0.0529,-0.169334 v -2.868083 q 0,-0.09525 -0.0529,-0.15875 -0.0423,-0.0635 -0.14816,-0.07408 l -0.53975,-0.07408 v -0.381 q 0.3175,-0.09525 0.67733,-0.148167 0.35983,-0.05292 0.65617,-0.0635 l 0.14816,0.137583 0.0529,0.47625 q 0.32808,-0.338666 0.71967,-0.47625 0.39158,-0.137583 0.81491,-0.137583 0.762,0 1.03717,0.4445 0.27517,0.4445 0.27517,1.23825 v 2.084916 q 0,0.105834 0.0529,0.169334 0.0635,0.0635 0.15875,0.07408 l 0.47625,0.07408 v 0.391584 h -2.13783 v -0.391584 l 0.42333,-0.07408 q 0.0952,-0.02117 0.14817,-0.07408 0.0635,-0.05292 0.0635,-0.169334 v -1.93675 q 0,-0.634999 -0.17992,-0.941916 -0.16933,-0.3175 -0.66675,-0.3175 -0.3175,0 -0.61383,0.09525 -0.28575,0.09525 -0.53975,0.28575 v 2.815166 q 0,0.105834 0.0529,0.169334 0.0529,0.05292 0.14816,0.07408 z"
         style="font-style:normal;font-variant:normal;font-weight:normal;font-stretch:normal;font-family:Yrsa;-inkscape-font-specification:Yrsa;fill:#797979;fill-opacity:1;stroke-width:0.26458332;stroke:none;stroke-opacity:1"
         id="path847" />
      <path
         d="m 120.83659,62.569789 q 0,0.560917 0.22225,0.85725 0.23283,0.28575 0.74083,0.28575 0.4445,0 0.66675,-0.254 0.23284,-0.264583 0.23284,-0.836083 0,-0.592666 -0.23284,-0.85725 -0.23283,-0.275166 -0.71966,-0.275166 -0.381,0 -0.64559,0.22225 -0.26458,0.22225 -0.26458,0.857249 z m 3.24908,3.471334 q 0,0.370416 -0.17991,0.677333 -0.17992,0.306917 -0.49742,0.518583 -0.3175,0.22225 -0.762,0.338667 -0.4445,0.116417 -0.97367,0.116417 -0.92075,0 -1.37583,-0.338667 -0.45508,-0.338667 -0.45508,-0.878417 0,-0.391583 0.20108,-0.645583 0.21167,-0.254 0.53975,-0.402167 -0.1905,-0.105833 -0.28575,-0.264583 -0.0953,-0.15875 -0.0953,-0.381 0,-0.306917 0.16933,-0.497417 0.16934,-0.201083 0.40217,-0.3175 -0.37042,-0.169333 -0.58208,-0.497416 -0.20109,-0.328084 -0.20109,-0.804334 0,-0.402166 0.14817,-0.709083 0.14817,-0.306916 0.39158,-0.497416 0.254,-0.201084 0.59267,-0.296334 0.33867,-0.09525 0.71967,-0.09525 0.37041,0 0.67733,0.09525 0.3175,0.09525 0.52917,0.275167 0.17991,-0.169333 0.35983,-0.264583 0.1905,-0.105834 0.381,-0.105834 0.0953,0 0.21167,0.03175 0.11641,0.02117 0.22225,0.04233 v 0.624416 h -0.889 q 0.0952,0.15875 0.14816,0.359834 0.0529,0.1905 0.0529,0.423333 0,0.719666 -0.49742,1.164166 -0.49741,0.433917 -1.34408,0.433917 -0.15875,0 -0.30692,-0.01058 -0.14816,-0.02117 -0.28575,-0.05292 -0.10583,0.07408 -0.16933,0.179917 -0.0635,0.105833 -0.0635,0.243416 0,0.232834 0.20108,0.338667 0.21167,0.09525 0.66675,0.09525 h 0.94192 q 0.6985,0 1.04775,0.296333 0.35983,0.28575 0.35983,0.804334 z m -2.26483,1.195916 q 0.64558,0 1.04775,-0.264583 0.41275,-0.254 0.41275,-0.783167 0,-0.28575 -0.17992,-0.4445 -0.16933,-0.15875 -0.65616,-0.15875 h -0.98425 q -0.13759,0 -0.27517,-0.01058 -0.127,-0.01058 -0.23283,-0.03175 -0.13759,0.137583 -0.22225,0.328083 -0.0847,0.201084 -0.0847,0.465667 0,0.391583 0.254,0.645583 0.254,0.254 0.92075,0.254 z"
         style="font-style:normal;font-variant:normal;font-weight:normal;font-stretch:normal;font-family:Yrsa;-inkscape-font-specification:Yrsa;fill:#797979;fill-opacity:1;stroke-width:0.26458332;stroke:none;stroke-opacity:1"
         id="path849" />
      <path
         d="m 128.7529,65.628373 q -0.29633,0 -0.46566,-0.15875 -0.16934,-0.15875 -0.23284,-0.402167 -0.26458,0.254 -0.59266,0.423333 -0.32809,0.15875 -0.78317,0.15875 -0.71967,0 -1.04775,-0.391583 -0.32808,-0.402167 -0.32808,-1.2065 v -2.06375 q 0,-0.105833 -0.0529,-0.169333 -0.0423,-0.0635 -0.14817,-0.07408 l -0.47625,-0.08467 v -0.381 q 0.32809,-0.08467 0.68792,-0.127 0.37042,-0.05292 0.6985,-0.0635 l 0.11642,0.127 v 2.688166 q 0,0.613834 0.17991,0.910167 0.17992,0.28575 0.66675,0.28575 0.27517,0 0.53975,-0.08467 0.26459,-0.09525 0.49742,-0.28575 v -2.741083 q 0,-0.105833 -0.0529,-0.169333 -0.0529,-0.07408 -0.14816,-0.08467 l -0.5715,-0.08467 v -0.381 q 0.32808,-0.08467 0.74083,-0.127 0.41275,-0.05292 0.74083,-0.05292 l 0.11642,0.127 v 3.6195 q 0,0.137583 0.0529,0.1905 0.0635,0.05292 0.16933,0.0635 l 0.4445,0.04233 v 0.359833 q -0.13758,0.04233 -0.34925,0.08467 -0.21167,0.05292 -0.40217,0.05292 z"
         style="font-style:normal;font-variant:normal;font-weight:normal;font-stretch:normal;font-family:Yrsa;-inkscape-font-specification:Yrsa;fill:#797979;fill-opacity:1;stroke-width:0.26458332;stroke:none;stroke-opacity:1"
         id="path851" />
      <path
         d="m 131.6739,65.109789 q 0.27517,0 0.56092,-0.09525 0.28575,-0.105833 0.48683,-0.275166 v -1.037167 l -0.74083,0.07408 q -0.46567,0.03175 -0.71967,0.211667 -0.24341,0.169333 -0.24341,0.529167 0,0.275166 0.15875,0.433916 0.16933,0.15875 0.49741,0.15875 z m 1.778,0.518584 q -0.27516,0 -0.45508,-0.137584 -0.17992,-0.148166 -0.24342,-0.41275 -0.24341,0.264584 -0.61383,0.423334 -0.35983,0.148166 -0.762,0.148166 -0.52917,0 -0.889,-0.264583 -0.34925,-0.275167 -0.34925,-0.79375 0,-0.338667 0.14817,-0.560917 0.15875,-0.22225 0.40216,-0.359833 0.24342,-0.137583 0.55034,-0.201083 0.30691,-0.07408 0.60325,-0.09525 l 0.87841,-0.07408 v -0.518583 q 0,-0.60325 -0.24341,-0.836083 -0.23284,-0.243417 -0.71967,-0.243417 -0.35983,0 -0.68792,0.116417 -0.32808,0.116417 -0.60325,0.381 l -0.20108,-0.1905 q 0.15875,-0.455083 0.635,-0.687917 0.48683,-0.232833 1.09008,-0.232833 0.762,0 1.143,0.391583 0.39159,0.391584 0.39159,1.185333 v 2.169584 q 0,0.127 0.0529,0.1905 0.0635,0.05292 0.17992,0.0635 l 0.43392,0.04233 v 0.359833 q -0.10584,0.03175 -0.33867,0.08467 -0.22225,0.05292 -0.40217,0.05292 z"
         style="font-style:normal;font-variant:normal;font-weight:normal;font-stretch:normal;font-family:Yrsa;-inkscape-font-specification:Yrsa;fill:#797979;fill-opacity:1;stroke-width:0.26458332;stroke:none;stroke-opacity:1"
         id="path853" />
      <path
         d="m 135.76964,62.569789 q 0,0.560917 0.22225,0.85725 0.23284,0.28575 0.74084,0.28575 0.4445,0 0.66675,-0.254 0.23283,-0.264583 0.23283,-0.836083 0,-0.592666 -0.23283,-0.85725 -0.23284,-0.275166 -0.71967,-0.275166 -0.381,0 -0.64558,0.22225 -0.26459,0.22225 -0.26459,0.857249 z m 3.24909,3.471334 q 0,0.370416 -0.17992,0.677333 -0.17992,0.306917 -0.49742,0.518583 -0.3175,0.22225 -0.762,0.338667 -0.4445,0.116417 -0.97366,0.116417 -0.92075,0 -1.37584,-0.338667 -0.45508,-0.338667 -0.45508,-0.878417 0,-0.391583 0.20108,-0.645583 0.21167,-0.254 0.53975,-0.402167 -0.1905,-0.105833 -0.28575,-0.264583 -0.0953,-0.15875 -0.0953,-0.381 0,-0.306917 0.16934,-0.497417 0.16933,-0.201083 0.40216,-0.3175 -0.37041,-0.169333 -0.58208,-0.497416 -0.20108,-0.328084 -0.20108,-0.804334 0,-0.402166 0.14816,-0.709083 0.14817,-0.306916 0.39159,-0.497416 0.254,-0.201084 0.59266,-0.296334 0.33867,-0.09525 0.71967,-0.09525 0.37042,0 0.67733,0.09525 0.3175,0.09525 0.52917,0.275167 0.17992,-0.169333 0.35983,-0.264583 0.1905,-0.105834 0.381,-0.105834 0.0953,0 0.21167,0.03175 0.11642,0.02117 0.22225,0.04233 v 0.624416 h -0.889 q 0.0952,0.15875 0.14817,0.359834 0.0529,0.1905 0.0529,0.423333 0,0.719666 -0.49741,1.164166 -0.49742,0.433917 -1.34409,0.433917 -0.15875,0 -0.30691,-0.01058 -0.14817,-0.02117 -0.28575,-0.05292 -0.10584,0.07408 -0.16934,0.179917 -0.0635,0.105833 -0.0635,0.243416 0,0.232834 0.20109,0.338667 0.21166,0.09525 0.66675,0.09525 h 0.94191 q 0.6985,0 1.04775,0.296333 0.35984,0.28575 0.35984,0.804334 z m -2.26484,1.195916 q 0.64559,0 1.04775,-0.264583 0.41275,-0.254 0.41275,-0.783167 0,-0.28575 -0.17991,-0.4445 -0.16934,-0.15875 -0.65617,-0.15875 h -0.98425 q -0.13758,0 -0.27517,-0.01058 -0.127,-0.01058 -0.23283,-0.03175 -0.13758,0.137583 -0.22225,0.328083 -0.0847,0.201084 -0.0847,0.465667 0,0.391583 0.254,0.645583 0.254,0.254 0.92075,0.254 z"
         style="font-style:normal;font-variant:normal;font-weight:normal;font-stretch:normal;font-family:Yrsa;-inkscape-font-specification:Yrsa;fill:#797979;fill-opacity:1;stroke-width:0.26458332;stroke:none;stroke-opacity:1"
         id="path855" />
      <path
         d="m 141.64337,61.500873 q -0.41275,0 -0.68792,0.296333 -0.27517,0.28575 -0.34925,0.92075 h 1.92617 q 0.0106,-0.05292 0.0106,-0.09525 0.0106,-0.04233 0.0106,-0.09525 0,-0.455083 -0.24341,-0.740833 -0.23284,-0.28575 -0.66675,-0.28575 z m 1.70391,3.1115 q -0.13758,0.465666 -0.59266,0.751416 -0.4445,0.28575 -1.11125,0.28575 -0.98425,0 -1.4605,-0.624416 -0.47625,-0.635 -0.47625,-1.608667 0,-1.100666 0.56091,-1.725083 0.56092,-0.624417 1.49225,-0.624417 0.70909,0 1.15359,0.391584 0.45508,0.381 0.45508,1.121833 0,0.105833 -0.0106,0.264583 -0.0106,0.148167 -0.0317,0.275167 h -2.75167 q 0,0.02117 0,0.05292 0,0.03175 0,0.0635 0,1.037167 0.37042,1.439334 0.37041,0.402166 0.93133,0.402166 0.37042,0 0.68792,-0.15875 0.32808,-0.169333 0.51858,-0.465666 z"
         style="font-style:normal;font-variant:normal;font-weight:normal;font-stretch:normal;font-family:Yrsa;-inkscape-font-specification:Yrsa;fill:#797979;fill-opacity:1;stroke-width:0.26458332;stroke:none;stroke-opacity:1"
         id="path857" />
      <path
         d="m 150.58627,63.966789 q 0,0.3175 -0.127,0.635 -0.11642,0.306917 -0.37042,0.550334 -0.254,0.243416 -0.65616,0.391583 -0.39159,0.148167 -0.93134,0.148167 -0.60325,0 -1.10066,-0.15875 -0.48684,-0.15875 -0.78317,-0.338667 -0.0106,-0.370417 0.0106,-0.751417 0.0212,-0.391583 0.0635,-0.762 h 0.508 l 0.14817,0.899584 q 0.0106,0.07408 0.0318,0.137583 0.0317,0.0635 0.10583,0.137583 0.14817,0.15875 0.43392,0.28575 0.28575,0.127 0.64558,0.127 0.56092,0 0.85725,-0.275166 0.29634,-0.28575 0.29634,-0.762 0,-0.560917 -0.381,-0.836084 -0.37042,-0.275166 -0.97367,-0.550333 -0.27517,-0.127 -0.5715,-0.275167 -0.29633,-0.158749 -0.52917,-0.370416 -0.23283,-0.211667 -0.39158,-0.497417 -0.14817,-0.28575 -0.14817,-0.677333 0,-0.677333 0.49742,-1.121833 0.49742,-0.455084 1.47108,-0.455084 0.42334,0 0.84667,0.09525 0.43392,0.08467 0.73025,0.22225 0.0318,0.381 0.0106,0.740834 -0.0212,0.359833 -0.0635,0.687916 h -0.49741 l -0.14817,-0.783166 q -0.0212,-0.07408 -0.0635,-0.148167 -0.0317,-0.07408 -0.10583,-0.137583 -0.127,-0.105834 -0.35984,-0.179917 -0.22225,-0.07408 -0.49741,-0.07408 -0.49742,0 -0.762,0.243416 -0.254,0.232834 -0.254,0.656167 0,0.518583 0.37041,0.783167 0.37042,0.264583 1.04775,0.592666 0.30692,0.148167 0.60325,0.3175 0.30692,0.169333 0.52917,0.381 0.23283,0.201083 0.37042,0.47625 0.13758,0.275167 0.13758,0.645583 z"
         style="font-style:normal;font-variant:normal;font-weight:normal;font-stretch:normal;font-family:Yrsa;-inkscape-font-specification:Yrsa;fill:#797979;fill-opacity:1;stroke-width:0.26458332;stroke:none;stroke-opacity:1"
         id="path859" />
      <path
         d="m 153.40144,61.500873 q -0.41275,0 -0.68792,0.296333 -0.27517,0.28575 -0.34925,0.92075 h 1.92617 q 0.0106,-0.05292 0.0106,-0.09525 0.0106,-0.04233 0.0106,-0.09525 0,-0.455083 -0.24341,-0.740833 -0.23284,-0.28575 -0.66675,-0.28575 z m 1.70391,3.1115 q -0.13758,0.465666 -0.59266,0.751416 -0.4445,0.28575 -1.11125,0.28575 -0.98425,0 -1.4605,-0.624416 -0.47625,-0.635 -0.47625,-1.608667 0,-1.100666 0.56091,-1.725083 0.56092,-0.624417 1.49225,-0.624417 0.70909,0 1.15359,0.391584 0.45508,0.381 0.45508,1.121833 0,0.105833 -0.0106,0.264583 -0.0106,0.148167 -0.0317,0.275167 h -2.75167 q 0,0.02117 0,0.05292 0,0.03175 0,0.0635 0,1.037167 0.37042,1.439334 0.37041,0.402166 0.93133,0.402166 0.37042,0 0.68792,-0.15875 0.32808,-0.169333 0.51858,-0.465666 z"
         style="font-style:normal;font-variant:normal;font-weight:normal;font-stretch:normal;font-family:Yrsa;-inkscape-font-specification:Yrsa;fill:#797979;fill-opacity:1;stroke-width:0.26458332;stroke:none;stroke-opacity:1"
         id="path861" />
      <path
         d="m 158.44967,65.183873 v 0.381 h -2.49766 v -0.391584 l 0.46566,-0.07408 q 0.10584,-0.01058 0.15875,-0.07408 0.0529,-0.0635 0.0529,-0.169334 v -2.846916 q 0,-0.105833 -0.0529,-0.169333 -0.0423,-0.07408 -0.15875,-0.08467 l -0.52916,-0.07408 v -0.381 q 0.30691,-0.09525 0.65616,-0.148167 0.35984,-0.05292 0.66675,-0.0635 l 0.127,0.127 0.0847,0.709083 q 0.24342,-0.328083 0.635,-0.592666 0.40217,-0.264584 0.8255,-0.264584 0.10583,0 0.26458,0.03175 0.15875,0.03175 0.26459,0.07408 0.0212,0.328083 -0.0106,0.740833 -0.0212,0.402167 -0.0953,0.73025 h -0.39158 l -0.11642,-0.592667 q -0.0318,-0.127 -0.0953,-0.179916 -0.0529,-0.05292 -0.16933,-0.05292 -0.26458,0 -0.55033,0.116417 -0.28575,0.116416 -0.52917,0.359833 v 2.561166 q 0,0.105834 0.0529,0.169334 0.0635,0.0635 0.16933,0.07408 z"
         style="font-style:normal;font-variant:normal;font-weight:normal;font-stretch:normal;font-family:Yrsa;-inkscape-font-specification:Yrsa;fill:#797979;fill-opacity:1;stroke-width:0.26458332;stroke:none;stroke-opacity:1"
         id="path863" />
      <path
         d="m 161.76225,65.628373 -1.48167,-3.77825 q -0.0317,-0.07408 -0.0847,-0.127 -0.0529,-0.05292 -0.13759,-0.07408 l -0.28575,-0.08467 v -0.370417 h 2.05317 v 0.370417 l -0.66675,0.116417 1.12183,3.132666 1.0795,-3.132666 -0.66675,-0.116417 v -0.370417 h 1.67217 v 0.370417 L 164.08,61.64904 q -0.0741,0.02117 -0.13758,0.07408 -0.0635,0.04233 -0.0952,0.127 l -1.36525,3.77825 z"
         style="font-style:normal;font-variant:normal;font-weight:normal;font-stretch:normal;font-family:Yrsa;-inkscape-font-specification:Yrsa;fill:#797979;fill-opacity:1;stroke-width:0.26458332;stroke:none;stroke-opacity:1"
         id="path865" />
      <path
         d="m 166.85283,61.500873 q -0.41275,0 -0.68792,0.296333 -0.27516,0.28575 -0.34925,0.92075 h 1.92617 q 0.0106,-0.05292 0.0106,-0.09525 0.0106,-0.04233 0.0106,-0.09525 0,-0.455083 -0.24342,-0.740833 -0.23283,-0.28575 -0.66675,-0.28575 z m 1.70392,3.1115 q -0.13759,0.465666 -0.59267,0.751416 -0.4445,0.28575 -1.11125,0.28575 -0.98425,0 -1.4605,-0.624416 -0.47625,-0.635 -0.47625,-1.608667 0,-1.100666 0.56092,-1.725083 0.56091,-0.624417 1.49225,-0.624417 0.70908,0 1.15358,0.391584 0.45508,0.381 0.45508,1.121833 0,0.105833 -0.0106,0.264583 -0.0106,0.148167 -0.0317,0.275167 h -2.75167 q 0,0.02117 0,0.05292 0,0.03175 0,0.0635 0,1.037167 0.37042,1.439334 0.37042,0.402166 0.93133,0.402166 0.37042,0 0.68792,-0.15875 0.32808,-0.169333 0.51858,-0.465666 z"
         style="font-style:normal;font-variant:normal;font-weight:normal;font-stretch:normal;font-family:Yrsa;-inkscape-font-specification:Yrsa;fill:#797979;fill-opacity:1;stroke-width:0.26458332;stroke:none;stroke-opacity:1"
         id="path867" />
      <path
         d="m 171.90107,65.183873 v 0.381 h -2.49767 v -0.391584 l 0.46567,-0.07408 q 0.10583,-0.01058 0.15875,-0.07408 0.0529,-0.0635 0.0529,-0.169334 v -2.846916 q 0,-0.105833 -0.0529,-0.169333 -0.0423,-0.07408 -0.15875,-0.08467 l -0.52917,-0.07408 v -0.381 q 0.30692,-0.09525 0.65617,-0.148167 0.35983,-0.05292 0.66675,-0.0635 l 0.127,0.127 0.0847,0.709083 q 0.24342,-0.328083 0.635,-0.592666 0.40217,-0.264584 0.8255,-0.264584 0.10584,0 0.26459,0.03175 0.15875,0.03175 0.26458,0.07408 0.0212,0.328083 -0.0106,0.740833 -0.0212,0.402167 -0.0952,0.73025 h -0.39159 l -0.11641,-0.592667 q -0.0317,-0.127 -0.0952,-0.179916 -0.0529,-0.05292 -0.16934,-0.05292 -0.26458,0 -0.55033,0.116417 -0.28575,0.116416 -0.52917,0.359833 v 2.561166 q 0,0.105834 0.0529,0.169334 0.0635,0.0635 0.16933,0.07408 z"
         style="font-style:normal;font-variant:normal;font-weight:normal;font-stretch:normal;font-family:Yrsa;-inkscape-font-specification:Yrsa;fill:#797979;fill-opacity:1;stroke-width:0.26458332;stroke:none;stroke-opacity:1"
         id="path869" />
    </g>
  </g>
</svg>
